<?xml version="1.0" encoding="UTF-8" standalone="no"?>
<!DOCTYPE svg PUBLIC "-//W3C//DTD SVG 1.1//EN" "http://www.w3.org/Graphics/SVG/1.1/DTD/svg11.dtd">
<svg version="1.1" xmlns="http://www.w3.org/2000/svg" xmlns:xlink="http://www.w3.org/1999/xlink" preserveAspectRatio="xMidYMid meet" viewBox="0 0 640 640" width="640" height="640"><defs><path d="M195.42 506.42C143.12 492.12 96.54 443.04 87.72 388.55C78.88 334.23 107.64 274.51 144.91 234.1C182.01 193.69 227.69 172.59 271.84 156.57C316 140.54 358.63 129.52 413.8 126.71C468.98 123.9 536.59 129.45 558.48 164.77C580.37 200.1 556.6 264.97 548.71 329.46C540.82 393.94 548.87 457.8 520.57 482.82C492.28 507.83 427.95 493.99 366.75 497.19C305.55 500.4 247.72 520.72 195.42 506.42Z" id="alD2JbdO6"></path><path d="M327.3 373.37C331.37 373.97 342.32 375.75 342.32 375.75C343.49 376.27 349.35 378.88 359.9 383.58L383.28 341.07L353.91 358.39L339.37 350.16" id="a8PSbGuAU"></path><path d="M37.51 467.01L0 272.26L119.08 272.26L156.59 467.01L156.59 467.01L37.51 467.01Z" id="a2NWd9QdFL"></path><path d="M256.82 325.14C293.35 334.72 332.15 346.01 332.15 346.01C329.62 351.48 320.91 371.72 320.91 371.72C302.02 373.56 150.89 388.29 132 390.13C134.95 379.73 177.54 311.91 196.09 311.91C201.1 311.91 213.32 314.39 228.48 318.03" id="g1hy6Qrn8"></path><path d="M350.84 342.49L361.28 369.46" id="d5vxuZr2F"></path><path d="M333.38 343.03L318.77 376.64" id="a3ikiEIFcu"></path><path d="M338.05 343.03L323.45 376.64" id="f8Mu4CzHC"></path><path d="M354.52 339.94L364.96 366.91" id="d2fK98IicI"></path><path d="M324.21 370.28C328.27 370.88 339.23 372.65 339.23 372.65C340.4 373.18 346.26 375.79 356.81 380.49L380.19 337.98L350.82 355.3L336.27 347.07" id="ddZRCgiin"></path><path d="M599.67 377.92C599.67 377.92 599.67 377.92 599.67 377.92C599.67 383.01 599.67 385.84 599.67 386.4C599.67 386.4 599.67 386.4 599.67 386.4C369.32 386.4 241.34 386.4 215.75 386.4C215.75 386.4 215.75 386.4 215.75 386.4C215.75 381.31 215.75 378.48 215.75 377.92C215.75 377.92 215.75 377.92 215.75 377.92C446.1 377.92 574.08 377.92 599.67 377.92Z" id="ch20VfsIh"></path><path d="M235.74 580.73L283.55 386.4" id="dl9zlfmaa"></path><path d="M282.28 583.83L330.75 386.8" id="h39uG4E3ay"></path><path d="M358.06 496.06L331.19 386.8" id="a12Mxi3eBF"></path><path d="M379.66 583.83L366.23 529.27" id="c2foMgkYK0"></path><path d="M333.12 583.83L284.65 386.8" id="gdbxsyj4R"></path><path d="M448.82 580.73L496.62 386.4" id="a7VuGvp7f6"></path><path d="M529.08 446.71L543.83 386.8" id="aWr4r7R4h"></path><path d="M495.35 583.83L513.71 509.22" id="e204uwAc2y"></path><path d="M592.73 583.83L544.26 386.8" id="d6o0jZUGfc"></path><path d="M546.19 583.83L497.72 386.8" id="bHbhHEMLK"></path><path d="M37.51 467.01L179.12 467.01" id="d23XD2mkWw"></path><path d="M108.31 562.6L108.31 575.51" id="b1Sgv2CHOF"></path><path d="M108.31 527.5L108.31 536.62" id="dyXlQPhr"></path><path d="M108.31 467.01L108.31 518.33" id="a3MILy73PW"></path><path d="M85.29 575.51L131.34 575.51" id="b2ADHWhWEV"></path><path d="M556.42 93.84C556.42 93.84 556.42 93.84 556.42 93.84C556.42 212.56 556.42 278.52 556.42 291.72C556.42 291.72 556.42 291.72 556.42 291.72C437.69 291.72 371.73 291.72 358.54 291.72C358.54 291.72 358.54 291.72 358.54 291.72C358.54 172.99 358.54 107.03 358.54 93.84C358.54 93.84 358.54 93.84 358.54 93.84C477.27 93.84 543.23 93.84 556.42 93.84Z" id="e4UrObeH47"></path><path d="M483.39 129.63C492.93 129.63 497.7 134.4 497.7 143.94C497.7 146.03 497.7 147.19 497.7 147.42C497.7 156.97 492.93 161.74 483.39 161.74C426.99 161.74 395.65 161.74 389.39 161.74C379.84 161.74 375.07 156.97 375.07 147.42C375.07 145.34 375.07 144.18 375.07 143.94C375.07 134.4 379.84 129.63 389.39 129.63C445.79 129.63 477.12 129.63 483.39 129.63Z" id="cKKOtJS6M"></path><path d="M523.83 129.62C514.97 129.62 507.78 136.81 507.78 145.68C507.78 154.54 514.97 161.73 523.83 161.73C532.7 161.73 539.89 154.54 539.89 145.68C539.89 136.81 532.7 129.62 523.83 129.62Z" id="bEPdBRo9J"></path><path d="M375.07 179.77L539.89 179.77" id="b1yvZoHDFL"></path><path d="M375.07 203.48L539.89 203.48" id="e2pWWKcMK5"></path><path d="M375.07 227.19L458.58 227.19" id="a1kOv353hE"></path><path d="M317.76 224.16C323.95 224.16 327.04 227.25 327.04 233.43C327.04 251.16 327.04 261.02 327.04 262.99C327.04 269.17 323.95 272.26 317.76 272.26C300.03 272.26 290.18 272.26 288.21 272.26C282.02 272.26 278.93 269.17 278.93 262.99C278.93 245.25 278.93 235.4 278.93 233.43C278.93 227.25 282.02 224.16 288.21 224.16C305.94 224.16 315.79 224.16 317.76 224.16Z" id="b54B82o8Fk"></path><path d="M324.43 211.84C317.74 211.84 312.31 217.26 312.31 223.96C312.31 230.65 317.74 236.07 324.43 236.07C331.13 236.07 336.55 230.65 336.55 223.96C336.55 217.26 331.13 211.84 324.43 211.84Z" id="aLkJzX8dG"></path><path d="M453.32 55.4C453.32 55.4 453.32 55.4 453.32 55.4C453.32 93.94 453.32 115.35 453.32 119.64C453.32 119.64 453.32 119.64 453.32 119.64C342.75 119.64 281.32 119.64 269.04 119.64C269.04 119.64 269.04 119.64 269.04 119.64C269.04 81.1 269.04 59.68 269.04 55.4C269.04 55.4 269.04 55.4 269.04 55.4C379.61 55.4 441.04 55.4 453.32 55.4Z" id="b3ZeZRkLB"></path><path d="M300.69 74.38L421.67 74.38" id="e36bXY9M2T"></path><path d="M300.69 100.66L357.13 100.66" id="b3vn4gqAUa"></path><path d="M180.66 183.12L223.07 178.27L197.66 143.96L197.66 143.96L180.66 183.12Z" id="b1qniyOLVk"></path><path d="M590.62 115.78C590.62 115.78 590.62 115.78 590.62 115.78C611.53 120.84 623.14 123.65 625.46 124.21C625.46 124.21 625.46 124.21 625.46 124.21C622.9 134.82 621.47 140.7 621.19 141.88C621.19 141.88 621.19 141.88 621.19 141.88C600.28 136.83 588.67 134.02 586.35 133.45C586.35 133.45 586.35 133.45 586.35 133.45C588.91 122.85 590.34 116.96 590.62 115.78Z" id="b1BFPbwxoL"></path><path d="M107.19 470.1C148.68 470.1 216.23 417.73 238.76 400.14C253.15 397.21 361.65 366.13 361.65 366.13C359.65 360.13 355.38 349.07 355.38 349.07C355.38 349.07 255.91 355.37 238.29 358.31C220.66 361.25 138.07 386.91 134.07 388.06C130.06 389.21 70 422.4 70 422.4C70.47 427.66 79.28 470.1 107.19 470.1Z" id="e33nakgb9x"></path><path d="M135.09 393.22C138.04 382.82 180.63 315 199.18 315C217.74 315 335.21 349.1 335.21 349.1C332.68 354.57 323.97 374.8 323.97 374.8C286.19 378.49 172.86 389.54 135.09 393.22Z" id="enPNasY3U"></path><path d="M248.46 353.69C242.54 354.26 237.89 354.79 235.18 355.23C217.56 358.17 134.96 383.83 130.96 384.98C126.96 386.13 66.91 419.3 66.91 419.3C67.38 424.56 76.18 467 104.09 467C123.96 467 149.8 455 173.81 440.55" id="b5NYmyW7r"></path><path d="M201.48 422.53C216.05 412.35 228.28 402.84 235.66 397.07C250.06 394.14 358.56 363.06 358.56 363.06C356.55 357.06 352.29 346 352.29 346C352.29 346 318.28 348.16 286.53 350.53" id="ahLxWXWne"></path><path d="M132.94 324.18C139.32 321.6 197.86 300.22 202.86 299.15C207.86 298.08 228.62 293.87 230.83 309.2C227.03 312.39 218.32 309.56 211.82 310.98C205.32 312.39 135.26 353.02 130.34 354.11C125.43 355.2 97.36 346.38 97.36 346.38C97.36 346.38 110.52 309.44 123 307.37C126.32 311.54 131.71 321.23 132.94 324.18Z" id="b19R2FLo6T"></path><path d="M128.36 302.97C126.33 307.21 118.55 314.39 116.22 315C113.89 315.6 73.97 265.98 90.95 265.98C105.71 265.98 124.82 292.56 128.36 302.97Z" id="afEh9Ir"></path><path d="M123.32 295.45C124.07 296.88 124.72 298.36 125.26 299.88C123.24 304.12 115.46 311.3 113.13 311.9C110.8 312.51 70.88 262.89 87.86 262.89C97.42 262.89 108.82 274.05 116.61 284.74" id="aAy8QD3La"></path><path d="M197.43 313.22C175.7 324.6 131.11 350.16 127.25 351.02C122.37 352.1 94.27 343.29 94.27 343.29C94.27 343.29 107.41 306.36 119.91 304.28C123.22 308.45 128.62 318.14 129.85 321.09C131.39 320.45 136.09 318.7 142.35 316.39" id="b4Dga0Nta"></path><path d="M164.53 308.29C180.86 302.39 197.22 296.6 199.77 296.04C204.8 294.94 225.53 290.77 227.74 306.09C223.94 309.28 215.23 306.45 208.73 307.87" id="bGoKizcMs"></path><path d="M92.75 270.27C119.03 289.24 128.07 344.93 137.58 387.12C129.59 396.08 80.61 427.31 69.9 424.91C46.07 366.94 16.95 263.61 72.29 263.61C79.65 263.57 86.82 265.91 92.75 270.27" id="d3z4S9VsCY"></path><path d="M64.22 415.4C40.96 356.58 15.84 260.52 69.19 260.52C80.54 260.52 89.64 265.58 97.11 273.99" id="b5hJ6f3fjR"></path><path d="M109.5 293.57C121.55 319.08 127.9 354.79 134.48 384C130.67 388.26 117.59 397.56 103.76 405.89" id="a37G1KY5kG"></path><path d="M30.36 453.79C31.32 467.01 35.51 476.45 35.59 480.98C35.92 497.05 48.62 505.21 53.52 505.21C58.42 505.21 58.99 503.54 58.99 501.57C58.99 499.61 48.76 478.32 48.76 470.45C48.76 462.58 61.83 348.44 63.33 341.71C64.83 334.99 34.15 340.05 34.15 340.05C33.78 345.64 28.32 425.68 30.36 453.79Z" id="h3moXNEQSn"></path><path d="M45.76 465.46C46.93 448.51 58.78 345.01 60.24 338.62C61.79 331.9 31.06 336.96 31.06 336.96C30.86 339.88 29.29 363.03 28.11 388.51" id="enF7dGDi7"></path><path d="M26.89 425.03C26.73 435.27 26.8 444.32 27.27 450.69C28.23 463.92 32.42 473.36 32.5 477.88C32.83 493.96 45.53 502.12 50.43 502.12C55.33 502.12 55.9 500.45 55.9 498.48C55.9 497.57 53.67 492.45 51.3 486.45" id="b4eCncg5j6"></path><path d="M65.72 344.03C60 346.34 32.62 343.48 29.76 339.54C26.9 335.59 31.75 276.76 56.07 278C73.76 278.92 71.44 341.71 65.72 344.03Z" id="kSuM6wINp"></path><path d="M55.33 269.7C58.49 271.24 67.61 271.8 71.22 269.09C69.78 265.16 68.34 255.81 68.45 249.72C68.56 243.64 50.96 244.68 50.96 244.68C52.95 250.71 55.39 265.27 55.33 269.7Z" id="b8GlYGDCZ"></path><path d="M67.33 263.31C66.05 257.85 65.39 252.26 65.36 246.65C65.46 240.56 47.87 241.61 47.87 241.61C49.86 247.64 52.29 262.19 52.24 266.62C54.31 267.64 58.96 268.23 62.92 267.74" id="c6iMN6737"></path><path d="M65.36 214.02C53.87 214.02 44.55 223.34 44.55 234.83C44.55 246.32 53.87 255.64 65.36 255.64C76.85 255.64 86.16 246.32 86.16 234.83C86.16 223.34 76.85 214.02 65.36 214.02Z" id="j1EC0j3bdk"></path><path d="M79.99 242.65C74.97 250.74 65.12 254.42 56.03 251.58" id="d14QPHckER"></path><path d="M46.81 245.67C39.12 237.12 39.81 223.97 48.35 216.28C56.9 208.6 70.05 209.29 77.74 217.83C81.18 221.65 83.08 226.61 83.08 231.75C83.08 232.79 83 233.82 82.85 234.85" id="g7KZ0paW9"></path><path d="M84.46 218.79C77.31 228.84 61.38 229.71 58.18 229.71C54.98 229.71 54.23 238.66 50.11 238.66C45.99 238.66 35.42 235.97 35.42 223.62C35.42 214.5 42.58 209.76 52.69 206.62C60.63 204.15 77.56 198.89 82.75 198.89C91.43 198.89 95.89 207.48 95.89 215.89C95.89 223.14 93.75 226.57 85.47 229.55" id="dzMV6ulyJ"></path><path d="M54.44 202.04C63.07 199.42 75.38 195.86 79.67 195.86C88.35 195.86 92.81 204.45 92.81 212.86C92.81 220.11 90.68 223.54 82.39 226.52" id="d2Y2AJwcUn"></path><path d="M62.85 225.82C60.28 226.3 57.68 226.56 55.07 226.59C51.85 226.59 51.14 235.54 47.02 235.54C42.9 235.54 32.33 232.85 32.33 220.51C32.32 219.1 32.51 217.69 32.89 216.33" id="b1gYmEys2e"></path><path d="M81.37 215.7C78.84 219.06 75.44 221.66 71.54 223.23" id="a4iH9qenS"></path><path d="M50.66 231.11C47.72 231.11 45.34 233.5 45.34 236.44C45.34 239.38 47.72 241.76 50.66 241.76C53.6 241.76 55.99 239.38 55.99 236.44C55.99 233.5 53.6 231.11 50.66 231.11Z" id="bzZOGLqNa"></path><path d="M49.12 240.22C46.18 240.21 43.79 237.83 43.8 234.89C43.8 231.95 46.19 229.56 49.13 229.57C50.53 229.57 51.88 230.12 52.87 231.11" id="l4nzpz9LZQ"></path><path d="M58.89 341.65C49.45 342.42 29.11 339.83 26.67 336.46C25.3 334.57 25.69 320.08 29.15 305.64" id="b1B2Dvmv51"></path><path d="M37.18 284.99C41.15 278.72 46.34 274.58 52.97 274.94C67.35 275.72 68.52 317.28 65.34 334.1" id="b2D1YPn5H4"></path><path d="M366.11 364.21L378.36 359.67L392.63 358.29L377.1 313.07L371.59 341.88L359.48 347.07" id="ae9tIFaaL"></path><path d="M369.53 334.16L368.5 339.56L356.38 344.75" id="bjwauumZD"></path><path d="M384.05 340.02L374.01 310.75L370.79 327.55" id="d6yii0H1ok"></path><path d="M363.02 361.9L375.27 357.35L389.53 355.97" id="oqPbM7a0p"></path><path d="M71.88 231.11C71.88 233.15 73.11 236.82 74.97 238.18" id="b2VSAL7ADk"></path><path d="M79.12 229.24C79.12 230.62 78.54 231.74 77.82 231.74C77.09 231.74 76.51 230.62 76.51 229.24C76.51 227.86 77.09 226.75 77.82 226.75C78.54 226.75 79.12 227.86 79.12 229.24Z" id="c3SyJtCMP"></path><path d="M64.36 241.11C65.33 242.28 68.02 243.9 69.89 243.9" id="c4blH1biQ7"></path><path d="M640 215.73C640 215.73 640 215.73 640 215.73C640 300.04 640 346.88 640 356.25C640 356.25 640 356.25 640 356.25C575.89 356.25 540.27 356.25 533.15 356.25C533.15 356.25 533.15 356.25 533.15 356.25C533.15 271.94 533.15 225.1 533.15 215.73C533.15 215.73 533.15 215.73 533.15 215.73C597.26 215.73 632.88 215.73 640 215.73Z" id="a2yGAWLl0e"></path><path d="M640 215.73C640 215.73 640 215.73 640 215.73C640 227.41 640 233.9 640 235.19C640 235.19 640 235.19 640 235.19C575.89 235.19 540.27 235.19 533.15 235.19C533.15 235.19 533.15 235.19 533.15 235.19C533.15 223.52 533.15 217.03 533.15 215.73C533.15 215.73 533.15 215.73 533.15 215.73C597.26 215.73 632.88 215.73 640 215.73Z" id="aN4ptMwNb"></path><path d="M545 220.51C542.34 220.51 540.19 222.66 540.19 225.32C540.19 227.98 542.34 230.14 545 230.14C547.66 230.14 549.82 227.98 549.82 225.32C549.82 222.66 547.66 220.51 545 220.51Z" id="aa5w5SF36Z"></path><path d="M559.66 220.51C557.01 220.51 554.85 222.66 554.85 225.32C554.85 227.98 557.01 230.14 559.66 230.14C562.32 230.14 564.48 227.98 564.48 225.32C564.48 222.66 562.32 220.51 559.66 220.51Z" id="d2rP6vpvsL"></path><path d="M574.33 220.51C571.68 220.51 569.52 222.66 569.52 225.32C569.52 227.98 571.68 230.14 574.33 230.14C576.99 230.14 579.15 227.98 579.15 225.32C579.15 222.66 576.99 220.51 574.33 220.51Z" id="a3fEExODXI"></path><path d="M575.63 251.08C575.63 251.08 575.63 251.08 575.63 251.08C575.63 275.65 575.63 289.31 575.63 292.04C575.63 292.04 575.63 292.04 575.63 292.04C557.91 292.04 548.07 292.04 546.1 292.04C546.1 292.04 546.1 292.04 546.1 292.04C546.1 267.46 546.1 253.81 546.1 251.08C546.1 251.08 546.1 251.08 546.1 251.08C563.82 251.08 573.66 251.08 575.63 251.08Z" id="ccO1T5QKV"></path><path d="M585.87 251.08L625.9 251.08" id="a8Rjh0A8v"></path><path d="M546.1 314.52L625.9 314.52" id="g4BoTPNLy9"></path><path d="M546.1 335.66L625.9 335.66" id="bAO1oZDDZ"></path><path d="M585.87 272.22L625.9 272.22" id="bhdsGxKbD"></path><path d="M585.87 293.37L625.9 293.37" id="a4RRvX3xrR"></path></defs><g><g><g><use xlink:href="#alD2JbdO6" opacity="1" fill="#f0f0f0" fill-opacity="1"></use><g><use xlink:href="#alD2JbdO6" opacity="1" fill-opacity="0" stroke="#000000" stroke-width="1" stroke-opacity="0"></use></g></g><g><use xlink:href="#a8PSbGuAU" opacity="1" fill="#ffffff" fill-opacity="1"></use><g><use xlink:href="#a8PSbGuAU" opacity="1" fill-opacity="0" stroke="#000000" stroke-width="1" stroke-opacity="0"></use></g></g><g><use xlink:href="#a2NWd9QdFL" opacity="1" fill="#eaf0ff" fill-opacity="1"></use><g><use xlink:href="#a2NWd9QdFL" opacity="1" fill-opacity="0" stroke="#000000" stroke-width="1" stroke-opacity="0"></use></g></g><g><use xlink:href="#g1hy6Qrn8" opacity="1" fill="#000000" fill-opacity="0"></use><g><use xlink:href="#g1hy6Qrn8" opacity="1" fill-opacity="0" stroke="#1b3c87" stroke-width="2" stroke-opacity="1"></use></g></g><g><use xlink:href="#d5vxuZr2F" opacity="1" fill="#000000" fill-opacity="0"></use><g><use xlink:href="#d5vxuZr2F" opacity="1" fill-opacity="0" stroke="#1b3c87" stroke-width="2" stroke-opacity="1"></use></g></g><g><use xlink:href="#a3ikiEIFcu" opacity="1" fill="#000000" fill-opacity="0"></use><g><use xlink:href="#a3ikiEIFcu" opacity="1" fill-opacity="0" stroke="#1b3c87" stroke-width="2" stroke-opacity="1"></use></g></g><g><use xlink:href="#f8Mu4CzHC" opacity="1" fill="#000000" fill-opacity="0"></use><g><use xlink:href="#f8Mu4CzHC" opacity="1" fill-opacity="0" stroke="#1b3c87" stroke-width="2" stroke-opacity="1"></use></g></g><g><use xlink:href="#d2fK98IicI" opacity="1" fill="#000000" fill-opacity="0"></use><g><use xlink:href="#d2fK98IicI" opacity="1" fill-opacity="0" stroke="#1b3c87" stroke-width="2" stroke-opacity="1"></use></g></g><g><use xlink:href="#ddZRCgiin" opacity="1" fill="#000000" fill-opacity="0"></use><g><use xlink:href="#ddZRCgiin" opacity="1" fill-opacity="0" stroke="#1b3c87" stroke-width="2" stroke-opacity="1"></use></g></g><g><use xlink:href="#ch20VfsIh" opacity="1" fill="#d8dfff" fill-opacity="1"></use><g><use xlink:href="#ch20VfsIh" opacity="1" fill-opacity="0" stroke="#000000" stroke-width="1" stroke-opacity="0"></use></g></g><g><use xlink:href="#dl9zlfmaa" opacity="1" fill="#000000" fill-opacity="0"></use><g><use xlink:href="#dl9zlfmaa" opacity="1" fill-opacity="0" stroke="#d8dfff" stroke-width="2" stroke-opacity="1"></use></g></g><g><use xlink:href="#h39uG4E3ay" opacity="1" fill="#000000" fill-opacity="0"></use><g><use xlink:href="#h39uG4E3ay" opacity="1" fill-opacity="0" stroke="#d8dfff" stroke-width="2" stroke-opacity="1"></use></g></g><g><use xlink:href="#a12Mxi3eBF" opacity="1" fill="#000000" fill-opacity="0"></use><g><use xlink:href="#a12Mxi3eBF" opacity="1" fill-opacity="0" stroke="#d8dfff" stroke-width="2" stroke-opacity="1"></use></g></g><g><use xlink:href="#c2foMgkYK0" opacity="1" fill="#000000" fill-opacity="0"></use><g><use xlink:href="#c2foMgkYK0" opacity="1" fill-opacity="0" stroke="#d8dfff" stroke-width="2" stroke-opacity="1"></use></g></g><g><use xlink:href="#gdbxsyj4R" opacity="1" fill="#000000" fill-opacity="0"></use><g><use xlink:href="#gdbxsyj4R" opacity="1" fill-opacity="0" stroke="#d8dfff" stroke-width="2" stroke-opacity="1"></use></g></g><g><use xlink:href="#a7VuGvp7f6" opacity="1" fill="#000000" fill-opacity="0"></use><g><use xlink:href="#a7VuGvp7f6" opacity="1" fill-opacity="0" stroke="#d8dfff" stroke-width="2" stroke-opacity="1"></use></g></g><g><use xlink:href="#aWr4r7R4h" opacity="1" fill="#000000" fill-opacity="0"></use><g><use xlink:href="#aWr4r7R4h" opacity="1" fill-opacity="0" stroke="#d8dfff" stroke-width="2" stroke-opacity="1"></use></g></g><g><use xlink:href="#e204uwAc2y" opacity="1" fill="#000000" fill-opacity="0"></use><g><use xlink:href="#e204uwAc2y" opacity="1" fill-opacity="0" stroke="#d8dfff" stroke-width="2" stroke-opacity="1"></use></g></g><g><use xlink:href="#d6o0jZUGfc" opacity="1" fill="#000000" fill-opacity="0"></use><g><use xlink:href="#d6o0jZUGfc" opacity="1" fill-opacity="0" stroke="#d8dfff" stroke-width="2" stroke-opacity="1"></use></g></g><g><use xlink:href="#bHbhHEMLK" opacity="1" fill="#000000" fill-opacity="0"></use><g><use xlink:href="#bHbhHEMLK" opacity="1" fill-opacity="0" stroke="#d8dfff" stroke-width="2" stroke-opacity="1"></use></g></g><g><use xlink:href="#d23XD2mkWw" opacity="1" fill="#000000" fill-opacity="0"></use><g><use xlink:href="#d23XD2mkWw" opacity="1" fill-opacity="0" stroke="#1b3c87" stroke-width="2" stroke-opacity="1"></use></g></g><g><use xlink:href="#b1Sgv2CHOF" opacity="1" fill="#000000" fill-opacity="0"></use><g><use xlink:href="#b1Sgv2CHOF" opacity="1" fill-opacity="0" stroke="#1b3c87" stroke-width="2" stroke-opacity="1"></use></g></g><g><use xlink:href="#dyXlQPhr" opacity="1" fill="#000000" fill-opacity="0"></use><g><use xlink:href="#dyXlQPhr" opacity="1" fill-opacity="0" stroke="#1b3c87" stroke-width="2" stroke-opacity="1"></use></g></g><g><use xlink:href="#a3MILy73PW" opacity="1" fill="#000000" fill-opacity="0"></use><g><use xlink:href="#a3MILy73PW" opacity="1" fill-opacity="0" stroke="#1b3c87" stroke-width="2" stroke-opacity="1"></use></g></g><g><use xlink:href="#b2ADHWhWEV" opacity="1" fill="#000000" fill-opacity="0"></use><g><use xlink:href="#b2ADHWhWEV" opacity="1" fill-opacity="0" stroke="#1b3c87" stroke-width="2" stroke-opacity="1"></use></g></g><g><use xlink:href="#e4UrObeH47" opacity="1" fill="#d8dfff" fill-opacity="1"></use><g><use xlink:href="#e4UrObeH47" opacity="1" fill-opacity="0" stroke="#000000" stroke-width="1" stroke-opacity="0"></use></g></g><g><use xlink:href="#cKKOtJS6M" opacity="1" fill="#ffffff" fill-opacity="1"></use><g><use xlink:href="#cKKOtJS6M" opacity="1" fill-opacity="0" stroke="#000000" stroke-width="1" stroke-opacity="0"></use></g></g><g><use xlink:href="#bEPdBRo9J" opacity="1" fill="#ffffff" fill-opacity="1"></use><g><use xlink:href="#bEPdBRo9J" opacity="1" fill-opacity="0" stroke="#000000" stroke-width="1" stroke-opacity="0"></use></g></g><g><use xlink:href="#b1yvZoHDFL" opacity="1" fill="#000000" fill-opacity="0"></use><g><use xlink:href="#b1yvZoHDFL" opacity="1" fill-opacity="0" stroke="#ffffff" stroke-width="2" stroke-opacity="1"></use></g></g><g><use xlink:href="#e2pWWKcMK5" opacity="1" fill="#000000" fill-opacity="0"></use><g><use xlink:href="#e2pWWKcMK5" opacity="1" fill-opacity="0" stroke="#ffffff" stroke-width="2" stroke-opacity="1"></use></g></g><g><use xlink:href="#a1kOv353hE" opacity="1" fill="#000000" fill-opacity="0"></use><g><use xlink:href="#a1kOv353hE" opacity="1" fill-opacity="0" stroke="#ffffff" stroke-width="2" stroke-opacity="1"></use></g></g><g><use xlink:href="#b54B82o8Fk" opacity="1" fill="#d8dfff" fill-opacity="1"></use><g><use xlink:href="#b54B82o8Fk" opacity="1" fill-opacity="0" stroke="#000000" stroke-width="1" stroke-opacity="0"></use></g></g><g><use xlink:href="#aLkJzX8dG" opacity="1" fill="#fa5d63" fill-opacity="1"></use><g><use xlink:href="#aLkJzX8dG" opacity="1" fill-opacity="0" stroke="#000000" stroke-width="1" stroke-opacity="0"></use></g></g><g><use xlink:href="#b3ZeZRkLB" opacity="1" fill="#eaf0ff" fill-opacity="1"></use><g><use xlink:href="#b3ZeZRkLB" opacity="1" fill-opacity="0" stroke="#000000" stroke-width="1" stroke-opacity="0"></use></g></g><g><use xlink:href="#e36bXY9M2T" opacity="1" fill="#000000" fill-opacity="0"></use><g><use xlink:href="#e36bXY9M2T" opacity="1" fill-opacity="0" stroke="#b2c3fb" stroke-width="2" stroke-opacity="1"></use></g></g><g><use xlink:href="#b3vn4gqAUa" opacity="1" fill="#000000" fill-opacity="0"></use><g><use xlink:href="#b3vn4gqAUa" opacity="1" fill-opacity="0" stroke="#b2c3fb" stroke-width="2" stroke-opacity="1"></use></g></g><g><use xlink:href="#b1qniyOLVk" opacity="1" fill="#000000" fill-opacity="0"></use><g><use xlink:href="#b1qniyOLVk" opacity="1" fill-opacity="0" stroke="#b6c6fc" stroke-width="2" stroke-opacity="1"></use></g></g><g><use xlink:href="#b1BFPbwxoL" opacity="1" fill="#000000" fill-opacity="0"></use><g><use xlink:href="#b1BFPbwxoL" opacity="1" fill-opacity="0" stroke="#b6c6fc" stroke-width="2" stroke-opacity="1"></use></g></g><g><use xlink:href="#e33nakgb9x" opacity="1" fill="#3b3744" fill-opacity="1"></use><g><use xlink:href="#e33nakgb9x" opacity="1" fill-opacity="0" stroke="#000000" stroke-width="1" stroke-opacity="0"></use></g></g><g><use xlink:href="#enPNasY3U" opacity="1" fill="#3b3744" fill-opacity="1"></use><g><use xlink:href="#enPNasY3U" opacity="1" fill-opacity="0" stroke="#000000" stroke-width="1" stroke-opacity="0"></use></g></g><g><use xlink:href="#b5NYmyW7r" opacity="1" fill="#000000" fill-opacity="0"></use><g><use xlink:href="#b5NYmyW7r" opacity="1" fill-opacity="0" stroke="#1b3c87" stroke-width="2" stroke-opacity="1"></use></g></g><g><use xlink:href="#ahLxWXWne" opacity="1" fill="#000000" fill-opacity="0"></use><g><use xlink:href="#ahLxWXWne" opacity="1" fill-opacity="0" stroke="#1b3c87" stroke-width="2" stroke-opacity="1"></use></g></g><g><use xlink:href="#b19R2FLo6T" opacity="1" fill="#ffffff" fill-opacity="1"></use><g><use xlink:href="#b19R2FLo6T" opacity="1" fill-opacity="0" stroke="#000000" stroke-width="1" stroke-opacity="0"></use></g></g><g><use xlink:href="#afEh9Ir" opacity="1" fill="#204fb1" fill-opacity="1"></use><g><use xlink:href="#afEh9Ir" opacity="1" fill-opacity="0" stroke="#000000" stroke-width="1" stroke-opacity="0"></use></g></g><g><use xlink:href="#aAy8QD3La" opacity="1" fill="#000000" fill-opacity="0"></use><g><use xlink:href="#aAy8QD3La" opacity="1" fill-opacity="0" stroke="#1b3c87" stroke-width="2" stroke-opacity="1"></use></g></g><g><use xlink:href="#b4Dga0Nta" opacity="1" fill="#000000" fill-opacity="0"></use><g><use xlink:href="#b4Dga0Nta" opacity="1" fill-opacity="0" stroke="#1b3c87" stroke-width="2" stroke-opacity="1"></use></g></g><g><use xlink:href="#bGoKizcMs" opacity="1" fill="#000000" fill-opacity="0"></use><g><use xlink:href="#bGoKizcMs" opacity="1" fill-opacity="0" stroke="#1b3c87" stroke-width="2" stroke-opacity="1"></use></g></g><g><use xlink:href="#d3z4S9VsCY" opacity="1" fill="#204fb1" fill-opacity="1"></use><g><use xlink:href="#d3z4S9VsCY" opacity="1" fill-opacity="0" stroke="#000000" stroke-width="1" stroke-opacity="0"></use></g></g><g><use xlink:href="#b5hJ6f3fjR" opacity="1" fill="#000000" fill-opacity="0"></use><g><use xlink:href="#b5hJ6f3fjR" opacity="1" fill-opacity="0" stroke="#1b3c87" stroke-width="2" stroke-opacity="1"></use></g></g><g><use xlink:href="#a37G1KY5kG" opacity="1" fill="#000000" fill-opacity="0"></use><g><use xlink:href="#a37G1KY5kG" opacity="1" fill-opacity="0" stroke="#1b3c87" stroke-width="2" stroke-opacity="1"></use></g></g><g><use xlink:href="#h3moXNEQSn" opacity="1" fill="#ffffff" fill-opacity="1"></use><g><use xlink:href="#h3moXNEQSn" opacity="1" fill-opacity="0" stroke="#000000" stroke-width="1" stroke-opacity="0"></use></g></g><g><use xlink:href="#enF7dGDi7" opacity="1" fill="#000000" fill-opacity="0"></use><g><use xlink:href="#enF7dGDi7" opacity="1" fill-opacity="0" stroke="#1b3c87" stroke-width="2" stroke-opacity="1"></use></g></g><g><use xlink:href="#b4eCncg5j6" opacity="1" fill="#000000" fill-opacity="0"></use><g><use xlink:href="#b4eCncg5j6" opacity="1" fill-opacity="0" stroke="#1b3c87" stroke-width="2" stroke-opacity="1"></use></g></g><g><use xlink:href="#kSuM6wINp" opacity="1" fill="#204fb1" fill-opacity="1"></use><g><use xlink:href="#kSuM6wINp" opacity="1" fill-opacity="0" stroke="#000000" stroke-width="1" stroke-opacity="0"></use></g></g><g><use xlink:href="#b8GlYGDCZ" opacity="1" fill="#ffffff" fill-opacity="1"></use><g><use xlink:href="#b8GlYGDCZ" opacity="1" fill-opacity="0" stroke="#000000" stroke-width="1" stroke-opacity="0"></use></g></g><g><use xlink:href="#c6iMN6737" opacity="1" fill="#000000" fill-opacity="0"></use><g><use xlink:href="#c6iMN6737" opacity="1" fill-opacity="0" stroke="#1b3c87" stroke-width="2" stroke-opacity="1"></use></g></g><g><use xlink:href="#j1EC0j3bdk" opacity="1" fill="#ffffff" fill-opacity="1"></use><g><use xlink:href="#j1EC0j3bdk" opacity="1" fill-opacity="0" stroke="#000000" stroke-width="1" stroke-opacity="0"></use></g></g><g><use xlink:href="#d14QPHckER" opacity="1" fill="#000000" fill-opacity="0"></use><g><use xlink:href="#d14QPHckER" opacity="1" fill-opacity="0" stroke="#1b3c87" stroke-width="2" stroke-opacity="1"></use></g></g><g><use xlink:href="#g7KZ0paW9" opacity="1" fill="#000000" fill-opacity="0"></use><g><use xlink:href="#g7KZ0paW9" opacity="1" fill-opacity="0" stroke="#1b3c87" stroke-width="2" stroke-opacity="1"></use></g></g><g><use xlink:href="#dzMV6ulyJ" opacity="1" fill="#ecc953" fill-opacity="1"></use><g><use xlink:href="#dzMV6ulyJ" opacity="1" fill-opacity="0" stroke="#000000" stroke-width="1" stroke-opacity="0"></use></g></g><g><use xlink:href="#d2Y2AJwcUn" opacity="1" fill="#000000" fill-opacity="0"></use><g><use xlink:href="#d2Y2AJwcUn" opacity="1" fill-opacity="0" stroke="#1b3c87" stroke-width="2" stroke-opacity="1"></use></g></g><g><use xlink:href="#b1gYmEys2e" opacity="1" fill="#000000" fill-opacity="0"></use><g><use xlink:href="#b1gYmEys2e" opacity="1" fill-opacity="0" stroke="#1b3c87" stroke-width="2" stroke-opacity="1"></use></g></g><g><use xlink:href="#a4iH9qenS" opacity="1" fill="#000000" fill-opacity="0"></use><g><use xlink:href="#a4iH9qenS" opacity="1" fill-opacity="0" stroke="#1b3c87" stroke-width="2" stroke-opacity="1"></use></g></g><g><use xlink:href="#bzZOGLqNa" opacity="1" fill="#ffffff" fill-opacity="1"></use><g><use xlink:href="#bzZOGLqNa" opacity="1" fill-opacity="0" stroke="#000000" stroke-width="1" stroke-opacity="0"></use></g></g><g><use xlink:href="#l4nzpz9LZQ" opacity="1" fill="#000000" fill-opacity="0"></use><g><use xlink:href="#l4nzpz9LZQ" opacity="1" fill-opacity="0" stroke="#1b3c87" stroke-width="2" stroke-opacity="1"></use></g></g><g><use xlink:href="#b1B2Dvmv51" opacity="1" fill="#000000" fill-opacity="0"></use><g><use xlink:href="#b1B2Dvmv51" opacity="1" fill-opacity="0" stroke="#1b3c87" stroke-width="2" stroke-opacity="1"></use></g></g><g><use xlink:href="#b2D1YPn5H4" opacity="1" fill="#000000" fill-opacity="0"></use><g><use xlink:href="#b2D1YPn5H4" opacity="1" fill-opacity="0" stroke="#1b3c87" stroke-width="2" stroke-opacity="1"></use></g></g><g><use xlink:href="#ae9tIFaaL" opacity="1" fill="#ffffff" fill-opacity="1"></use><g><use xlink:href="#ae9tIFaaL" opacity="1" fill-opacity="0" stroke="#000000" stroke-width="1" stroke-opacity="0"></use></g></g><g><use xlink:href="#bjwauumZD" opacity="1" fill="#000000" fill-opacity="0"></use><g><use xlink:href="#bjwauumZD" opacity="1" fill-opacity="0" stroke="#1b3c87" stroke-width="2" stroke-opacity="1"></use></g></g><g><use xlink:href="#d6yii0H1ok" opacity="1" fill="#000000" fill-opacity="0"></use><g><use xlink:href="#d6yii0H1ok" opacity="1" fill-opacity="0" stroke="#1b3c87" stroke-width="2" stroke-opacity="1"></use></g></g><g><use xlink:href="#oqPbM7a0p" opacity="1" fill="#000000" fill-opacity="0"></use><g><use xlink:href="#oqPbM7a0p" opacity="1" fill-opacity="0" stroke="#1b3c87" stroke-width="2" stroke-opacity="1"></use></g></g><g><use xlink:href="#b2VSAL7ADk" opacity="1" fill="#000000" fill-opacity="0"></use><g><use xlink:href="#b2VSAL7ADk" opacity="1" fill-opacity="0" stroke="#1b3c87" stroke-width="2" stroke-opacity="1"></use></g></g><g><use xlink:href="#c3SyJtCMP" opacity="1" fill="#1b3c87" fill-opacity="1"></use><g><use xlink:href="#c3SyJtCMP" opacity="1" fill-opacity="0" stroke="#000000" stroke-width="1" stroke-opacity="0"></use></g></g><g><use xlink:href="#c4blH1biQ7" opacity="1" fill="#000000" fill-opacity="0"></use><g><use xlink:href="#c4blH1biQ7" opacity="1" fill-opacity="0" stroke="#1b3c87" stroke-width="2" stroke-opacity="1"></use></g></g><g><use xlink:href="#a2yGAWLl0e" opacity="1" fill="#eaf0ff" fill-opacity="1"></use><g><use xlink:href="#a2yGAWLl0e" opacity="1" fill-opacity="0" stroke="#000000" stroke-width="1" stroke-opacity="0"></use></g></g><g><use xlink:href="#aN4ptMwNb" opacity="1" fill="#d8dfff" fill-opacity="1"></use><g><use xlink:href="#aN4ptMwNb" opacity="1" fill-opacity="0" stroke="#000000" stroke-width="1" stroke-opacity="0"></use></g></g><g><use xlink:href="#aa5w5SF36Z" opacity="1" fill="#b2c3fb" fill-opacity="1"></use><g><use xlink:href="#aa5w5SF36Z" opacity="1" fill-opacity="0" stroke="#000000" stroke-width="1" stroke-opacity="0"></use></g></g><g><use xlink:href="#d2rP6vpvsL" opacity="1" fill="#b2c3fb" fill-opacity="1"></use><g><use xlink:href="#d2rP6vpvsL" opacity="1" fill-opacity="0" stroke="#000000" stroke-width="1" stroke-opacity="0"></use></g></g><g><use xlink:href="#a3fEExODXI" opacity="1" fill="#b2c3fb" fill-opacity="1"></use><g><use xlink:href="#a3fEExODXI" opacity="1" fill-opacity="0" stroke="#000000" stroke-width="1" stroke-opacity="0"></use></g></g><g><use xlink:href="#ccO1T5QKV" opacity="1" fill="#d8dfff" fill-opacity="1"></use><g><use xlink:href="#ccO1T5QKV" opacity="1" fill-opacity="0" stroke="#000000" stroke-width="1" stroke-opacity="0"></use></g></g><g><use xlink:href="#a8Rjh0A8v" opacity="1" fill="#000000" fill-opacity="0"></use><g><use xlink:href="#a8Rjh0A8v" opacity="1" fill-opacity="0" stroke="#b2c3fb" stroke-width="2" stroke-opacity="1"></use></g></g><g><use xlink:href="#g4BoTPNLy9" opacity="1" fill="#000000" fill-opacity="0"></use><g><use xlink:href="#g4BoTPNLy9" opacity="1" fill-opacity="0" stroke="#b2c3fb" stroke-width="2" stroke-opacity="1"></use></g></g><g><use xlink:href="#bAO1oZDDZ" opacity="1" fill="#000000" fill-opacity="0"></use><g><use xlink:href="#bAO1oZDDZ" opacity="1" fill-opacity="0" stroke="#b2c3fb" stroke-width="2" stroke-opacity="1"></use></g></g><g><use xlink:href="#bhdsGxKbD" opacity="1" fill="#000000" fill-opacity="0"></use><g><use xlink:href="#bhdsGxKbD" opacity="1" fill-opacity="0" stroke="#b2c3fb" stroke-width="2" stroke-opacity="1"></use></g></g><g><use xlink:href="#a4RRvX3xrR" opacity="1" fill="#000000" fill-opacity="0"></use><g><use xlink:href="#a4RRvX3xrR" opacity="1" fill-opacity="0" stroke="#b2c3fb" stroke-width="2" stroke-opacity="1"></use></g></g></g></g></svg>