<?xml version="1.0" encoding="UTF-8" standalone="no"?>
<!DOCTYPE svg PUBLIC "-//W3C//DTD SVG 1.1//EN" "http://www.w3.org/Graphics/SVG/1.1/DTD/svg11.dtd">
<svg version="1.1" xmlns="http://www.w3.org/2000/svg" xmlns:xlink="http://www.w3.org/1999/xlink" preserveAspectRatio="xMidYMid meet" viewBox="0 0 640 640" width="640" height="640"><defs><path d="M146.97 417.5C146.42 422.84 136.07 499.82 133.92 518.47C131.78 537.13 117.87 585.77 113.9 592.52C118.05 595.09 130.36 601.97 130.36 601.97C130.36 601.97 167.87 544.16 169.4 538.66C170.94 533.16 177.46 506.55 177.46 506.55C176.86 500.27 173.87 468.87 168.48 412.35C157.01 415.1 149.84 416.82 146.97 417.5Z" id="a1GH3btc4S"></path><path d="M468.67 231.36C467.38 271.75 435.56 310.63 408.08 346.05C380.61 381.47 357.4 413.29 322.9 434.84C288.41 456.4 242.71 467.33 205.44 454.08C168.17 440.82 139.3 403.49 120.99 363.9C102.68 324.31 94.63 282.41 109.06 252.17C123.5 221.93 160.39 203.25 191.19 169.58C222 135.91 246.78 86.98 282.46 74.03C318.14 61.07 364.71 83.84 402.63 116.3C440.64 148.77 469.96 190.97 468.67 231.36Z" id="buBl5vXFb"></path><path d="M134 298.04C134 295.01 151.38 234.44 152.48 229.29C153.57 224.14 153.54 209.57 152.48 204.78C152.94 202.99 154.17 202.41 154.49 203.49C155.33 204.17 160.13 207.05 160.13 207.05C160.13 207.05 171.34 222.5 168.84 225.99C166.79 228.75 164.99 231.7 163.48 234.79C162.87 238.69 154.02 288.86 154.46 292.08C154.91 295.3 163.82 311.53 164.06 312.68C162.13 313.7 143.38 321.11 142.25 319.92C139.72 316.37 134 301.06 134 298.04Z" id="bGeDuEIaN"></path><path d="M141.33 258.06C145.45 243.21 149.41 229.1 149.9 226.71C150.96 221.56 150.96 207 149.9 202.2C150.36 200.41 151.59 199.83 151.92 200.91" id="b7wMOmoNQN"></path><path d="M139.67 317.35C137.15 313.79 131.43 298.49 131.43 295.46C131.43 294.32 133.92 284.92 137.08 273.4" id="k18UWx0ifE"></path><path d="M427.29 -0.01C427.29 -0.01 427.29 -0.01 427.29 -0.01C469.32 163.46 492.67 254.27 497.34 272.43C497.34 272.43 497.34 272.43 497.34 272.43C314.13 319.54 212.35 345.71 191.99 350.95C191.99 350.95 191.99 350.95 191.99 350.95C149.96 187.48 126.61 96.67 121.94 78.5C121.94 78.5 121.94 78.5 121.94 78.5C305.15 31.39 406.93 5.22 427.29 -0.01Z" id="aMZ1Ef28g"></path><path d="M201.61 58.01C201.61 58.01 201.61 58.01 201.61 58.01C243.64 221.48 267 312.29 271.67 330.45C271.67 330.45 271.67 330.45 271.67 330.45C223.86 342.75 197.3 349.58 191.99 350.94C191.99 350.94 191.99 350.94 191.99 350.94C149.96 187.47 126.61 96.66 121.94 78.5C121.94 78.5 121.94 78.5 121.94 78.5C169.74 66.2 196.3 59.38 201.61 58.01Z" id="a50kDMWPl"></path><path d="M171.92 82.25C157.85 82.25 146.44 93.66 146.44 107.74C146.44 121.81 157.85 133.22 171.92 133.22C186 133.22 197.41 121.81 197.41 107.74C197.41 93.66 186 82.25 171.92 82.25Z" id="b2W0KLwgW"></path><path d="M212.06 138.44C212.06 138.44 212.06 138.44 212.06 138.44C212.95 141.89 213.44 143.81 213.54 144.19C213.54 144.19 213.54 144.19 213.54 144.19C177.61 153.43 157.65 158.56 153.66 159.59C153.66 159.59 153.66 159.59 153.66 159.59C152.77 156.14 152.28 154.22 152.18 153.83C152.18 153.83 152.18 153.83 152.18 153.83C188.11 144.6 208.07 139.46 212.06 138.44Z" id="cGfTJPhda"></path><path d="M215.62 152.29C215.62 152.29 215.62 152.29 215.62 152.29C216.51 155.74 217 157.66 217.1 158.04C217.1 158.04 217.1 158.04 217.1 158.04C181.17 167.28 161.21 172.42 157.22 173.44C157.22 173.44 157.22 173.44 157.22 173.44C156.33 169.99 155.84 168.07 155.74 167.69C155.74 167.69 155.74 167.69 155.74 167.69C191.67 158.45 211.63 153.32 215.62 152.29Z" id="cjx9NLRjp"></path><path d="M285.17 163.41C281.26 163.41 278.09 166.58 278.09 170.49C278.09 174.4 281.26 177.57 285.17 177.57C289.08 177.57 292.25 174.4 292.25 170.49C292.25 166.58 289.08 163.41 285.17 163.41Z" id="b1jfVosrl8"></path><path d="M414.53 134.15C414.53 134.15 414.53 134.15 414.53 134.15C415.42 137.6 415.91 139.52 416.01 139.91C416.01 139.91 416.01 139.91 416.01 139.91C347.91 157.42 310.08 167.15 302.51 169.09C302.51 169.09 302.51 169.09 302.51 169.09C301.62 165.64 301.13 163.72 301.03 163.34C301.03 163.34 301.03 163.34 301.03 163.34C369.13 145.83 406.96 136.1 414.53 134.15Z" id="boZIzqOaV"></path><path d="M388.79 33.99C388.79 33.99 388.79 33.99 388.79 33.99C402.68 88.02 410.39 118.03 411.94 124.03C411.94 124.03 411.94 124.03 411.94 124.03C329.71 145.18 284.03 156.92 274.9 159.27C274.9 159.27 274.9 159.27 274.9 159.27C261 105.25 253.29 75.23 251.74 69.23C251.74 69.23 251.74 69.23 251.74 69.23C333.97 48.09 379.65 36.34 388.79 33.99Z" id="a47tJ5H0kk"></path><path d="M317.91 290.78C314 290.78 310.83 293.95 310.83 297.86C310.83 301.77 314 304.94 317.91 304.94C321.82 304.94 325 301.77 325 297.86C325 293.95 321.82 290.78 317.91 290.78Z" id="dIpL24EqY"></path><path d="M447.29 261.52C447.29 261.52 447.29 261.52 447.29 261.52C448.17 264.97 448.67 266.89 448.77 267.28C448.77 267.28 448.77 267.28 448.77 267.28C380.66 284.79 342.83 294.51 335.26 296.46C335.26 296.46 335.26 296.46 335.26 296.46C334.38 293.01 333.88 291.09 333.78 290.71C333.78 290.71 333.78 290.71 333.78 290.71C401.88 273.2 439.72 263.47 447.29 261.52Z" id="a4S9kjNAa"></path><path d="M421.53 161.36C421.53 161.36 421.53 161.36 421.53 161.36C435.42 215.39 443.14 245.4 444.68 251.4C444.68 251.4 444.68 251.4 444.68 251.4C362.46 272.55 316.78 284.29 307.64 286.64C307.64 286.64 307.64 286.64 307.64 286.64C293.75 232.62 286.03 202.6 284.49 196.6C284.49 196.6 284.49 196.6 284.49 196.6C366.72 175.46 412.4 163.71 421.53 161.36Z" id="j1H9oY3l4g"></path><path d="M110.75 597.5L104.41 608.67L96.47 614.79L118.17 640L135.96 640L124.37 622.1L126.33 606.37" id="bCrAJJtzr"></path><path d="M192.24 615.29L195.36 626.59L193.16 640L241.06 640L212.94 623.4L213.62 615.29" id="aFJCpYMXc"></path><path d="M133.23 495.01C132.11 503.75 131.19 511.01 130.7 515.26C128.57 533.92 114.65 582.57 110.68 589.28C114.83 591.86 127.14 598.73 127.14 598.73C127.14 598.73 164.65 540.93 166.19 535.42C167.72 529.92 174.24 503.31 174.24 503.31C173.64 497.03 170.65 465.64 165.27 409.13C152.36 412.22 145.19 413.94 143.75 414.28C143.48 416.96 140.75 437.53 137.83 459.77" id="bcEOvDYM0"></path><path d="M184.2 607.51L215.94 607.51" id="ci41Rz7Ak"></path><path d="M184.2 612.72L215.94 612.72" id="cTzOqbUzW"></path><path d="M232.64 637.43L238.48 637.43L210.36 620.82L211.05 612.72" id="apGX74EIg"></path><path d="M189.67 612.72L192.78 624.01L190.59 637.43L218.67 637.43" id="bjmWf1Q1y"></path><path d="M106.6 587.14L129.02 599.89" id="a1ZKU0bfRC"></path><path d="M104.38 592.76L126.8 605.52" id="a55Ep91fj"></path><path d="M123.33 621.9L121.8 619.53L123.75 603.79" id="g8JWQC8a0"></path><path d="M103.91 602.44L101.83 606.1L93.9 612.21L115.59 637.43L133.39 637.43L128.79 630.33" id="buVorch8W"></path><path d="M156.46 422.17C156.46 425.39 159.14 463.65 168.3 493.94C174.36 522.87 191.93 610.73 191.93 610.73C193.42 610.73 200.86 610.73 214.26 610.73L206.22 414.46C179.68 418.57 163.09 421.14 156.46 422.17Z" id="iRuT6uYBf"></path><path d="M177.46 551.46C183.3 580.48 188.71 607.51 188.71 607.51C190.2 607.51 197.64 607.51 211.05 607.51L203.01 411.25C173.15 415.88 156.56 418.46 153.24 418.97C153.24 422.19 155.92 460.45 165.09 490.74C166.46 497.32 168.43 506.93 170.65 517.86" id="a9S81ylpQ"></path><path d="M256.47 345.75C258.44 345.75 286.72 336.42 288.21 333.57C289.71 330.72 291.25 323.12 293.84 322.36C296.43 321.6 294.97 328.28 294.97 328.28C296.5 327.78 320.68 321.48 320.57 321.61C321.22 325.07 308.13 334.89 306.77 335.24C300.04 342.79 258.15 366.27 256.33 366.27C254.51 366.27 226.21 358.55 224.43 357.9C224.78 355.27 230.51 337.48 232.95 335.62C238.1 338.35 254.49 345.75 256.47 345.75Z" id="d23Oul1AjV"></path><path d="M163.18 229.02C164.8 226.86 166.59 224.52 166.5 221.18" id="aKvz4o8hW"></path><path d="M161.04 308.98C159.76 305.07 152.11 292.35 151.92 289.02C151.72 285.81 159.33 240.82 160.71 233.89" id="a3vt0dz2ua"></path><path d="M139.9 322.13C146.01 315.11 163.19 309.71 169.08 311.99C172.06 316.06 179.65 348.83 164.51 355.37C155.6 359.23 135.54 327.22 139.9 322.13Z" id="c7MW44y5EW"></path><path d="M137.33 319.56C143.43 312.54 160.62 307.14 166.51 309.41C169.48 313.49 177.07 346.26 161.93 352.79C153.03 356.65 132.96 324.65 137.33 319.56Z" id="b1oGCRTc3f"></path><path d="M245.28 362.16C249.19 363.06 252.37 363.69 253.43 363.69C256.78 363.69 295.97 341.06 303.87 332.85C311.47 328.45 316.25 323.52 318 319.73" id="eXoxWNTkj"></path><path d="M222.83 356.07C224.22 356.6 227.45 357.55 231.32 358.61" id="e3WhfWQOk"></path><path d="M271.32 337.66C278.33 335.08 284.93 332.33 285.64 330.99C287.16 328.14 288.68 320.55 291.26 319.79C293.85 319.03 292.39 325.71 292.39 325.71" id="i1AknSXG0n"></path><path d="M230.38 333.04C235.53 335.77 251.92 343.18 253.89 343.18C255.09 342.98 256.28 342.69 257.43 342.3" id="a3arpfZAF"></path><path d="M206.42 421.59C198.43 424.81 153.25 426.15 145.72 418.85C142.98 408.81 133.24 317.08 182.68 317.07C212.35 317.07 214.63 375.95 206.42 421.59Z" id="b4OLkN04jZ"></path><path d="M143.1 355.37C147.29 333.63 157.53 314.5 180.11 314.5C200.42 314.5 207.9 342.11 207.96 374.17" id="exNLXMm1a"></path><path d="M144.9 417.5C144.26 417.18 143.67 416.76 143.14 416.27C142.19 412.79 140.4 399.48 140.53 383.57" id="e2yqfkcEZj"></path><path d="M207.05 394.82C206.35 403.03 205.25 411.21 203.83 419.02C199.32 420.8 183.19 422.02 168.52 421.46" id="b20iPBri9s"></path><path d="M232.66 331.45C234.49 341.26 227.42 359.29 221.48 362.71C216 362.48 182.94 346.91 187.67 329.84C190.44 319.81 231.29 324.38 232.66 331.45Z" id="d1ikH6BiF0"></path><path d="M227.74 326.27C229.09 327.07 229.93 327.96 230.11 328.88C231.94 338.69 224.87 356.72 218.93 360.14C217.18 360.06 206.39 355.28 201.15 352.53" id="b4yD4xtOEy"></path><path d="M184.66 330.45C184.57 329.04 184.71 327.63 185.09 326.27C186.84 319.95 203.69 319.42 216.27 321.66" id="b1zR8SQVNz"></path><path d="M184.87 323.72C184.87 326.34 168.27 326.68 168.27 323.72C168.27 322.15 168.27 314.3 168.27 300.16L184.87 300.16C184.87 312.73 184.87 320.58 184.87 323.72Z" id="e1qWvC2VRj"></path><path d="M182.3 313.57L182.3 321.15" id="a3rcEETN0n"></path><path d="M175.47 323.19C170.89 323.42 165.69 322.8 165.69 321.15C165.69 319.58 165.69 311.72 165.69 297.59L182.3 297.59L182.3 308.16" id="hu8hSGlJT"></path><path d="M197.4 282.97C197.4 295.3 189.8 305.3 180.42 305.3C171.04 305.3 163.44 295.3 163.44 282.97C163.44 270.63 171.04 260.64 180.42 260.64C189.8 260.64 197.4 270.63 197.4 282.97Z" id="c2lHQKzNjI"></path><path d="M189.53 297.35C186.57 300.7 182.7 302.72 178.49 302.72C169.11 302.72 161.5 292.73 161.5 280.39C161.5 268.06 169.11 258.06 178.49 258.06C187.87 258.06 195.47 268.06 195.47 280.39C195.5 284.42 194.65 288.4 192.98 292.07" id="a6D7BapHKF"></path><path d="M172.35 250.59C178.29 250.59 175.02 259.03 175.02 259.03C177.49 254.08 185.13 246.44 188.47 246.44C191.81 246.44 192.62 251.59 189.2 256.85C192.2 253.5 196.42 251.48 200.91 251.25C204.78 251.25 205.28 255.83 205.28 260.34C205.28 268.32 188.54 280.56 186.66 282.67C186.51 285.29 184.33 306.6 179.02 306.6C173.7 306.6 160.5 305.3 160.5 285.4C160.5 267.62 166.4 250.59 172.35 250.59Z" id="b14bOtUCbM"></path><path d="M182.18 297.97C181.05 301.45 179.58 304.03 177.73 304.03C174.74 304.03 169.26 303.62 165.03 299.72" id="h2W6ZIov7R"></path><path d="M202.64 262.21C199.54 268 191.82 274.48 187.76 277.94" id="a3leYbsqZZ"></path><path d="M195.22 249.49C196.64 248.98 198.13 248.71 199.63 248.67C202.85 248.67 203.73 251.86 203.93 255.53" id="e3Phwqkcv"></path><path d="M159.23 280.66C159.68 263.68 165.36 248 171.06 248C177 248 173.73 256.44 173.73 256.44C176.2 251.5 183.84 243.86 187.18 243.86C190.52 243.86 191.34 249.01 187.91 254.26" id="a25N7aSaIE"></path><path d="M187.43 280.03C184.45 280.03 182.03 282.44 182.03 285.43C182.03 288.41 184.45 290.83 187.43 290.83C190.41 290.83 192.83 288.41 192.83 285.43C192.83 282.44 190.41 280.03 187.43 280.03Z" id="g182qb9Sur"></path><path d="M180.75 284.71C180.74 284.52 180.74 284.33 180.75 284.14C180.74 281.16 183.14 278.73 186.12 278.72C187.03 278.71 187.92 278.94 188.72 279.37" id="a5d0L7HuN"></path><path d="M187.67 289.32C187.18 289.47 186.66 289.55 186.14 289.55C184.75 289.55 183.42 289.01 182.41 288.05" id="a1p6EFB0JN"></path><path d="M462.16 70L479.94 100.79L497.72 70L497.72 70L462.16 70Z" id="aakc8am7"></path><path d="M103.43 115.93C103.43 115.93 103.43 115.93 103.43 115.93C93.73 130.99 88.34 139.36 87.27 141.03C87.27 141.03 87.27 141.03 87.27 141.03C79.63 136.11 75.39 133.38 74.54 132.83C74.54 132.83 74.54 132.83 74.54 132.83C84.24 117.77 89.63 109.41 90.71 107.73C90.71 107.73 90.71 107.73 90.71 107.73C98.34 112.65 102.59 115.38 103.43 115.93Z" id="e2ubvUqvyv"></path><path d="M404.04 418.75C404.04 418.75 404.04 418.75 404.04 418.75C370.41 511.25 351.72 562.64 347.99 572.92C347.99 572.92 347.99 572.92 347.99 572.92C298.75 555.02 271.39 545.07 265.92 543.08C265.92 543.08 265.92 543.08 265.92 543.08C299.55 450.58 318.24 399.19 321.97 388.92C321.97 388.92 321.97 388.92 321.97 388.92C371.21 406.82 398.57 416.76 404.04 418.75Z" id="bNPPRpKau"></path><path d="M317.91 377.05C309.68 377.05 303.01 383.72 303.01 391.95C303.01 400.19 309.68 406.86 317.91 406.86C326.15 406.86 332.82 400.19 332.82 391.95C332.82 383.72 326.15 377.05 317.91 377.05Z" id="faoJYmAzA"></path><path d="M516.52 371.78L566.1 346.28L519.23 316.1L519.23 316.1L516.52 371.78Z" id="a32BTp0FNL"></path></defs><g><g><g><use xlink:href="#a1GH3btc4S" opacity="1" fill="#3b3744" fill-opacity="1"></use><g><use xlink:href="#a1GH3btc4S" opacity="1" fill-opacity="0" stroke="#000000" stroke-width="1" stroke-opacity="0"></use></g></g><g><use xlink:href="#buBl5vXFb" opacity="1" fill="#f0f0f0" fill-opacity="1"></use><g><use xlink:href="#buBl5vXFb" opacity="1" fill-opacity="0" stroke="#000000" stroke-width="1" stroke-opacity="0"></use></g></g><g><use xlink:href="#bGeDuEIaN" opacity="1" fill="#ffffff" fill-opacity="1"></use><g><use xlink:href="#bGeDuEIaN" opacity="1" fill-opacity="0" stroke="#000000" stroke-width="1" stroke-opacity="0"></use></g></g><g><use xlink:href="#b7wMOmoNQN" opacity="1" fill="#000000" fill-opacity="0"></use><g><use xlink:href="#b7wMOmoNQN" opacity="1" fill-opacity="0" stroke="#1b3c87" stroke-width="2" stroke-opacity="1"></use></g></g><g><use xlink:href="#k18UWx0ifE" opacity="1" fill="#000000" fill-opacity="0"></use><g><use xlink:href="#k18UWx0ifE" opacity="1" fill-opacity="0" stroke="#1b3c87" stroke-width="2" stroke-opacity="1"></use></g></g><g><use xlink:href="#aMZ1Ef28g" opacity="1" fill="#c3d1fd" fill-opacity="1"></use><g><use xlink:href="#aMZ1Ef28g" opacity="1" fill-opacity="0" stroke="#000000" stroke-width="1" stroke-opacity="0"></use></g></g><g><use xlink:href="#a50kDMWPl" opacity="1" fill="#c3d1fd" fill-opacity="1"></use><g><use xlink:href="#a50kDMWPl" opacity="1" fill-opacity="0" stroke="#000000" stroke-width="1" stroke-opacity="0"></use></g></g><g><use xlink:href="#b2W0KLwgW" opacity="1" fill="#eaf0ff" fill-opacity="1"></use><g><use xlink:href="#b2W0KLwgW" opacity="1" fill-opacity="0" stroke="#000000" stroke-width="1" stroke-opacity="0"></use></g></g><g><use xlink:href="#cGfTJPhda" opacity="1" fill="#eaf0ff" fill-opacity="1"></use><g><use xlink:href="#cGfTJPhda" opacity="1" fill-opacity="0" stroke="#000000" stroke-width="1" stroke-opacity="0"></use></g></g><g><use xlink:href="#cjx9NLRjp" opacity="1" fill="#eaf0ff" fill-opacity="1"></use><g><use xlink:href="#cjx9NLRjp" opacity="1" fill-opacity="0" stroke="#000000" stroke-width="1" stroke-opacity="0"></use></g></g><g><use xlink:href="#b1jfVosrl8" opacity="1" fill="#b2c3fb" fill-opacity="1"></use><g><use xlink:href="#b1jfVosrl8" opacity="1" fill-opacity="0" stroke="#000000" stroke-width="1" stroke-opacity="0"></use></g></g><g><use xlink:href="#boZIzqOaV" opacity="1" fill="#d8dfff" fill-opacity="1"></use><g><use xlink:href="#boZIzqOaV" opacity="1" fill-opacity="0" stroke="#000000" stroke-width="1" stroke-opacity="0"></use></g></g><g><use xlink:href="#a47tJ5H0kk" opacity="1" fill="#ffffff" fill-opacity="1"></use><g><use xlink:href="#a47tJ5H0kk" opacity="1" fill-opacity="0" stroke="#000000" stroke-width="1" stroke-opacity="0"></use></g></g><g><use xlink:href="#dIpL24EqY" opacity="1" fill="#b2c3fb" fill-opacity="1"></use><g><use xlink:href="#dIpL24EqY" opacity="1" fill-opacity="0" stroke="#000000" stroke-width="1" stroke-opacity="0"></use></g></g><g><use xlink:href="#a4S9kjNAa" opacity="1" fill="#d8dfff" fill-opacity="1"></use><g><use xlink:href="#a4S9kjNAa" opacity="1" fill-opacity="0" stroke="#000000" stroke-width="1" stroke-opacity="0"></use></g></g><g><use xlink:href="#j1H9oY3l4g" opacity="1" fill="#ffffff" fill-opacity="1"></use><g><use xlink:href="#j1H9oY3l4g" opacity="1" fill-opacity="0" stroke="#000000" stroke-width="1" stroke-opacity="0"></use></g></g><g><use xlink:href="#bCrAJJtzr" opacity="1" fill="#ffffff" fill-opacity="1"></use><g><use xlink:href="#bCrAJJtzr" opacity="1" fill-opacity="0" stroke="#000000" stroke-width="1" stroke-opacity="0"></use></g></g><g><use xlink:href="#aFJCpYMXc" opacity="1" fill="#ffffff" fill-opacity="1"></use><g><use xlink:href="#aFJCpYMXc" opacity="1" fill-opacity="0" stroke="#000000" stroke-width="1" stroke-opacity="0"></use></g></g><g><use xlink:href="#bcEOvDYM0" opacity="1" fill="#000000" fill-opacity="0"></use><g><use xlink:href="#bcEOvDYM0" opacity="1" fill-opacity="0" stroke="#1b3c87" stroke-width="2" stroke-opacity="1"></use></g></g><g><use xlink:href="#ci41Rz7Ak" opacity="1" fill="#000000" fill-opacity="0"></use><g><use xlink:href="#ci41Rz7Ak" opacity="1" fill-opacity="0" stroke="#1b3c87" stroke-width="2" stroke-opacity="1"></use></g></g><g><use xlink:href="#cTzOqbUzW" opacity="1" fill="#000000" fill-opacity="0"></use><g><use xlink:href="#cTzOqbUzW" opacity="1" fill-opacity="0" stroke="#1b3c87" stroke-width="2" stroke-opacity="1"></use></g></g><g><use xlink:href="#apGX74EIg" opacity="1" fill="#000000" fill-opacity="0"></use><g><use xlink:href="#apGX74EIg" opacity="1" fill-opacity="0" stroke="#1b3c87" stroke-width="2" stroke-opacity="1"></use></g></g><g><use xlink:href="#bjmWf1Q1y" opacity="1" fill="#000000" fill-opacity="0"></use><g><use xlink:href="#bjmWf1Q1y" opacity="1" fill-opacity="0" stroke="#1b3c87" stroke-width="2" stroke-opacity="1"></use></g></g><g><use xlink:href="#a1ZKU0bfRC" opacity="1" fill="#000000" fill-opacity="0"></use><g><use xlink:href="#a1ZKU0bfRC" opacity="1" fill-opacity="0" stroke="#1b3c87" stroke-width="2" stroke-opacity="1"></use></g></g><g><use xlink:href="#a55Ep91fj" opacity="1" fill="#000000" fill-opacity="0"></use><g><use xlink:href="#a55Ep91fj" opacity="1" fill-opacity="0" stroke="#1b3c87" stroke-width="2" stroke-opacity="1"></use></g></g><g><use xlink:href="#g8JWQC8a0" opacity="1" fill="#000000" fill-opacity="0"></use><g><use xlink:href="#g8JWQC8a0" opacity="1" fill-opacity="0" stroke="#1b3c87" stroke-width="2" stroke-opacity="1"></use></g></g><g><use xlink:href="#buVorch8W" opacity="1" fill="#000000" fill-opacity="0"></use><g><use xlink:href="#buVorch8W" opacity="1" fill-opacity="0" stroke="#1b3c87" stroke-width="2" stroke-opacity="1"></use></g></g><g><use xlink:href="#iRuT6uYBf" opacity="1" fill="#3b3744" fill-opacity="1"></use><g><use xlink:href="#iRuT6uYBf" opacity="1" fill-opacity="0" stroke="#000000" stroke-width="1" stroke-opacity="0"></use></g></g><g><use xlink:href="#a9S81ylpQ" opacity="1" fill="#000000" fill-opacity="0"></use><g><use xlink:href="#a9S81ylpQ" opacity="1" fill-opacity="0" stroke="#1b3c87" stroke-width="2" stroke-opacity="1"></use></g></g><g><use xlink:href="#d23Oul1AjV" opacity="1" fill="#ffffff" fill-opacity="1"></use><g><use xlink:href="#d23Oul1AjV" opacity="1" fill-opacity="0" stroke="#000000" stroke-width="1" stroke-opacity="0"></use></g></g><g><use xlink:href="#aKvz4o8hW" opacity="1" fill="#000000" fill-opacity="0"></use><g><use xlink:href="#aKvz4o8hW" opacity="1" fill-opacity="0" stroke="#1b3c87" stroke-width="2" stroke-opacity="1"></use></g></g><g><use xlink:href="#a3vt0dz2ua" opacity="1" fill="#000000" fill-opacity="0"></use><g><use xlink:href="#a3vt0dz2ua" opacity="1" fill-opacity="0" stroke="#1b3c87" stroke-width="2" stroke-opacity="1"></use></g></g><g><use xlink:href="#c7MW44y5EW" opacity="1" fill="#204fb1" fill-opacity="1"></use><g><use xlink:href="#c7MW44y5EW" opacity="1" fill-opacity="0" stroke="#000000" stroke-width="1" stroke-opacity="0"></use></g></g><g><use xlink:href="#b1oGCRTc3f" opacity="1" fill="#204fb1" fill-opacity="0"></use><g><use xlink:href="#b1oGCRTc3f" opacity="1" fill-opacity="0" stroke="#1b3c87" stroke-width="2" stroke-opacity="1"></use></g></g><g><use xlink:href="#eXoxWNTkj" opacity="1" fill="#000000" fill-opacity="0"></use><g><use xlink:href="#eXoxWNTkj" opacity="1" fill-opacity="0" stroke="#1b3c87" stroke-width="2" stroke-opacity="1"></use></g></g><g><use xlink:href="#e3WhfWQOk" opacity="1" fill="#000000" fill-opacity="0"></use><g><use xlink:href="#e3WhfWQOk" opacity="1" fill-opacity="0" stroke="#1b3c87" stroke-width="2" stroke-opacity="1"></use></g></g><g><use xlink:href="#i1AknSXG0n" opacity="1" fill="#000000" fill-opacity="0"></use><g><use xlink:href="#i1AknSXG0n" opacity="1" fill-opacity="0" stroke="#1b3c87" stroke-width="2" stroke-opacity="1"></use></g></g><g><use xlink:href="#a3arpfZAF" opacity="1" fill="#000000" fill-opacity="0"></use><g><use xlink:href="#a3arpfZAF" opacity="1" fill-opacity="0" stroke="#1b3c87" stroke-width="2" stroke-opacity="1"></use></g></g><g><use xlink:href="#b4OLkN04jZ" opacity="1" fill="#204fb1" fill-opacity="1"></use><g><use xlink:href="#b4OLkN04jZ" opacity="1" fill-opacity="0" stroke="#000000" stroke-width="1" stroke-opacity="0"></use></g></g><g><use xlink:href="#exNLXMm1a" opacity="1" fill="#000000" fill-opacity="0"></use><g><use xlink:href="#exNLXMm1a" opacity="1" fill-opacity="0" stroke="#1b3c87" stroke-width="2" stroke-opacity="1"></use></g></g><g><use xlink:href="#e2yqfkcEZj" opacity="1" fill="#000000" fill-opacity="0"></use><g><use xlink:href="#e2yqfkcEZj" opacity="1" fill-opacity="0" stroke="#1b3c87" stroke-width="2" stroke-opacity="1"></use></g></g><g><use xlink:href="#b20iPBri9s" opacity="1" fill="#000000" fill-opacity="0"></use><g><use xlink:href="#b20iPBri9s" opacity="1" fill-opacity="0" stroke="#1b3c87" stroke-width="2" stroke-opacity="1"></use></g></g><g><use xlink:href="#d1ikH6BiF0" opacity="1" fill="#204fb1" fill-opacity="1"></use><g><use xlink:href="#d1ikH6BiF0" opacity="1" fill-opacity="0" stroke="#000000" stroke-width="1" stroke-opacity="0"></use></g></g><g><use xlink:href="#b4yD4xtOEy" opacity="1" fill="#000000" fill-opacity="0"></use><g><use xlink:href="#b4yD4xtOEy" opacity="1" fill-opacity="0" stroke="#1b3c87" stroke-width="2" stroke-opacity="1"></use></g></g><g><use xlink:href="#b1zR8SQVNz" opacity="1" fill="#000000" fill-opacity="0"></use><g><use xlink:href="#b1zR8SQVNz" opacity="1" fill-opacity="0" stroke="#1b3c87" stroke-width="2" stroke-opacity="1"></use></g></g><g><use xlink:href="#e1qWvC2VRj" opacity="1" fill="#ffffff" fill-opacity="1"></use><g><use xlink:href="#e1qWvC2VRj" opacity="1" fill-opacity="0" stroke="#000000" stroke-width="1" stroke-opacity="0"></use></g></g><g><use xlink:href="#a3rcEETN0n" opacity="1" fill="#000000" fill-opacity="0"></use><g><use xlink:href="#a3rcEETN0n" opacity="1" fill-opacity="0" stroke="#1b3c87" stroke-width="2" stroke-opacity="1"></use></g></g><g><use xlink:href="#hu8hSGlJT" opacity="1" fill="#000000" fill-opacity="0"></use><g><use xlink:href="#hu8hSGlJT" opacity="1" fill-opacity="0" stroke="#1b3c87" stroke-width="2" stroke-opacity="1"></use></g></g><g><use xlink:href="#c2lHQKzNjI" opacity="1" fill="#ffffff" fill-opacity="1"></use><g><use xlink:href="#c2lHQKzNjI" opacity="1" fill-opacity="0" stroke="#000000" stroke-width="1" stroke-opacity="0"></use></g></g><g><use xlink:href="#a6D7BapHKF" opacity="1" fill="#000000" fill-opacity="0"></use><g><use xlink:href="#a6D7BapHKF" opacity="1" fill-opacity="0" stroke="#1b3c87" stroke-width="2" stroke-opacity="1"></use></g></g><g><use xlink:href="#b14bOtUCbM" opacity="1" fill="#ecc953" fill-opacity="1"></use><g><use xlink:href="#b14bOtUCbM" opacity="1" fill-opacity="0" stroke="#000000" stroke-width="1" stroke-opacity="0"></use></g></g><g><use xlink:href="#h2W6ZIov7R" opacity="1" fill="#000000" fill-opacity="0"></use><g><use xlink:href="#h2W6ZIov7R" opacity="1" fill-opacity="0" stroke="#1b3c87" stroke-width="2" stroke-opacity="1"></use></g></g><g><use xlink:href="#a3leYbsqZZ" opacity="1" fill="#000000" fill-opacity="0"></use><g><use xlink:href="#a3leYbsqZZ" opacity="1" fill-opacity="0" stroke="#1b3c87" stroke-width="2" stroke-opacity="1"></use></g></g><g><use xlink:href="#e3Phwqkcv" opacity="1" fill="#000000" fill-opacity="0"></use><g><use xlink:href="#e3Phwqkcv" opacity="1" fill-opacity="0" stroke="#1b3c87" stroke-width="2" stroke-opacity="1"></use></g></g><g><use xlink:href="#a25N7aSaIE" opacity="1" fill="#000000" fill-opacity="0"></use><g><use xlink:href="#a25N7aSaIE" opacity="1" fill-opacity="0" stroke="#1b3c87" stroke-width="2" stroke-opacity="1"></use></g></g><g><use xlink:href="#g182qb9Sur" opacity="1" fill="#ffffff" fill-opacity="1"></use><g><use xlink:href="#g182qb9Sur" opacity="1" fill-opacity="0" stroke="#000000" stroke-width="1" stroke-opacity="0"></use></g></g><g><use xlink:href="#a5d0L7HuN" opacity="1" fill="#000000" fill-opacity="0"></use><g><use xlink:href="#a5d0L7HuN" opacity="1" fill-opacity="0" stroke="#1b3c87" stroke-width="2" stroke-opacity="1"></use></g></g><g><use xlink:href="#a1p6EFB0JN" opacity="1" fill="#000000" fill-opacity="0"></use><g><use xlink:href="#a1p6EFB0JN" opacity="1" fill-opacity="0" stroke="#1b3c87" stroke-width="2" stroke-opacity="1"></use></g></g><g><use xlink:href="#aakc8am7" opacity="1" fill="#000000" fill-opacity="0"></use><g><use xlink:href="#aakc8am7" opacity="1" fill-opacity="0" stroke="#b6c6fc" stroke-width="2" stroke-opacity="1"></use></g></g><g><use xlink:href="#e2ubvUqvyv" opacity="1" fill="#000000" fill-opacity="0"></use><g><use xlink:href="#e2ubvUqvyv" opacity="1" fill-opacity="0" stroke="#b6c6fc" stroke-width="2" stroke-opacity="1"></use></g></g><g><use xlink:href="#bNPPRpKau" opacity="1" fill="#eaf0ff" fill-opacity="1"></use><g><use xlink:href="#bNPPRpKau" opacity="1" fill-opacity="0" stroke="#000000" stroke-width="1" stroke-opacity="0"></use></g></g><g><use xlink:href="#faoJYmAzA" opacity="1" fill="#000000" fill-opacity="0"></use><g><use xlink:href="#faoJYmAzA" opacity="1" fill-opacity="0" stroke="#b6c6fc" stroke-width="2" stroke-opacity="1"></use></g></g><g><use xlink:href="#a32BTp0FNL" opacity="1" fill="#eaf0ff" fill-opacity="1"></use><g><use xlink:href="#a32BTp0FNL" opacity="1" fill-opacity="0" stroke="#000000" stroke-width="1" stroke-opacity="0"></use></g></g></g></g></svg>